HIERARCHY
ROOT Hips
{
  OFFSET -15.884 -12.824 -299.977
  CHANNELS 6 Xposition Yposition Zposition Zrotation Xrotation Yrotation
  JOINT LeftUpLeg
  {
    OFFSET 6.876 -7.984 1.817
    CHANNELS 6 Xposition Yposition Zposition Zrotation Xrotation Yrotation
    JOINT LeftLeg
    {
      OFFSET 0.000 -50.461 0.000
      CHANNELS 6 Xposition Yposition Zposition Zrotation Xrotation Yrotation
      JOINT LeftFoot
      {
        OFFSET -0.000 -43.123 -0.000
        CHANNELS 6 Xposition Yposition Zposition Zrotation Xrotation Yrotation
        End Site
        {
          OFFSET -0.000 -7.067 4.080
        }
      }
    }
  }
  JOINT RightUpLeg
  {
    OFFSET -7.336 -6.074 0.954
    CHANNELS 6 Xposition Yposition Zposition Zrotation Xrotation Yrotation
    JOINT RightLeg
    {
      OFFSET 0.000 -50.373 0.000
      CHANNELS 6 Xposition Yposition Zposition Zrotation Xrotation Yrotation
      JOINT RightFoot
      {
        OFFSET 0.000 -40.406 -0.000
        CHANNELS 6 Xposition Yposition Zposition Zrotation Xrotation Yrotation
        End Site
        {
          OFFSET -0.000 -7.717 4.455
        }
      }
    }
  }
  JOINT Spine
  {
    OFFSET 0.000 5.746 -5.746
    CHANNELS 6 Xposition Yposition Zposition Zrotation Xrotation Yrotation
    JOINT LeftShoulder
    {
      OFFSET -0.000 49.406 0.000
      CHANNELS 6 Xposition Yposition Zposition Zrotation Xrotation Yrotation
      JOINT LeftArm
      {
        OFFSET 29.906 0.000 -0.000
        CHANNELS 6 Xposition Yposition Zposition Zrotation Xrotation Yrotation
        JOINT LeftForeArm
        {
          OFFSET 24.597 -0.000 0.000
          CHANNELS 6 Xposition Yposition Zposition Zrotation Xrotation Yrotation
          JOINT LeftHand
          {
            OFFSET 24.342 0.000 -0.000
            CHANNELS 6 Xposition Yposition Zposition Zrotation Xrotation Yrotation
            JOINT LeftHandThumb1
            {
            OFFSET 4.970 -0.620 3.390
            CHANNELS 6 Xposition Yposition Zposition Zrotation Xrotation Yrotation
              JOINT LeftHandThumb2
              {
              OFFSET 2.150 -0.000 0.000
              CHANNELS 6 Xposition Yposition Zposition Zrotation Xrotation Yrotation
                JOINT LeftHandThumb3
                {
                OFFSET 2.200 -0.000 0.000
                CHANNELS 6 Xposition Yposition Zposition Zrotation Xrotation Yrotation
                  JOINT LeftHandThumb4
                  {
                  OFFSET 1.700 -0.000 0.000
                  CHANNELS 6 Xposition Yposition Zposition Zrotation Xrotation Yrotation
                  }
                }
              }
            }
            JOINT LeftHandIndex1
            {
            OFFSET 8.730 0.680 2.070
            CHANNELS 6 Xposition Yposition Zposition Zrotation Xrotation Yrotation
              JOINT LeftHandIndex2
              {
              OFFSET 2.670 -0.000 0.000
              CHANNELS 6 Xposition Yposition Zposition Zrotation Xrotation Yrotation
                JOINT LeftHandIndex3
                {
                OFFSET 2.130 -0.000 0.000
                CHANNELS 6 Xposition Yposition Zposition Zrotation Xrotation Yrotation
                  JOINT LeftHandIndex4
                  {
                  OFFSET 1.800 -0.000 0.000
                  CHANNELS 6 Xposition Yposition Zposition Zrotation Xrotation Yrotation
                  }
                }
              }
            }
            JOINT LeftHandMiddle1
            {
            OFFSET 9.220 0.670 0.550
            CHANNELS 6 Xposition Yposition Zposition Zrotation Xrotation Yrotation
              JOINT LeftHandMiddle2
              {
              OFFSET 2.660 -0.000 0.000
              CHANNELS 6 Xposition Yposition Zposition Zrotation Xrotation Yrotation
                JOINT LeftHandMiddle3
                {
                OFFSET 2.280 -0.000 0.000
                CHANNELS 6 Xposition Yposition Zposition Zrotation Xrotation Yrotation
                  JOINT LeftHandMiddle4
                  {
                  OFFSET 1.500 -0.000 0.000
                  CHANNELS 6 Xposition Yposition Zposition Zrotation Xrotation Yrotation
                  }
                }
              }
            }
            JOINT LeftHandRing1
            {
            OFFSET 9.250 0.670 -1.130
            CHANNELS 6 Xposition Yposition Zposition Zrotation Xrotation Yrotation
              JOINT LeftHandRing2
              {
              OFFSET 2.470 -0.000 0.000
              CHANNELS 6 Xposition Yposition Zposition Zrotation Xrotation Yrotation
                JOINT LeftHandRing3
                {
                OFFSET 2.210 -0.000 0.000
                CHANNELS 6 Xposition Yposition Zposition Zrotation Xrotation Yrotation
                  JOINT LeftHandRing4
                  {
                  OFFSET 1.800 -0.000 0.000
                  CHANNELS 6 Xposition Yposition Zposition Zrotation Xrotation Yrotation
                  }
                }
              }
            }
            JOINT LeftHandPinky1
            {
            OFFSET 9.350 0.660 -2.720
            CHANNELS 6 Xposition Yposition Zposition Zrotation Xrotation Yrotation
              JOINT LeftHandPinky2
              {
              OFFSET 1.630 -0.000 0.000
              CHANNELS 6 Xposition Yposition Zposition Zrotation Xrotation Yrotation
                JOINT LeftHandPinky3
                {
                OFFSET 1.710 -0.000 0.000
                CHANNELS 6 Xposition Yposition Zposition Zrotation Xrotation Yrotation
                  JOINT LeftHandPinky4
                  {
                  OFFSET 1.800 -0.000 0.000
                  CHANNELS 6 Xposition Yposition Zposition Zrotation Xrotation Yrotation
                  }
                }
              }
            }
          }
        }
      }
    }
    JOINT RightShoulder
    {
      OFFSET -0.000 49.406 0.000
      CHANNELS 6 Xposition Yposition Zposition Zrotation Xrotation Yrotation
      JOINT RightArm
      {
        OFFSET -28.405 0.000 -0.000
        CHANNELS 6 Xposition Yposition Zposition Zrotation Xrotation Yrotation
        JOINT RightForeArm
        {
          OFFSET -26.327 0.000 0.000
          CHANNELS 6 Xposition Yposition Zposition Zrotation Xrotation Yrotation
          JOINT RightHand
          {
            OFFSET -24.428 0.000 -0.000
            CHANNELS 6 Xposition Yposition Zposition Zrotation Xrotation Yrotation
            JOINT RightHandThumb1
            {
            OFFSET -4.970 -0.620 3.390
            CHANNELS 6 Xposition Yposition Zposition Zrotation Xrotation Yrotation
              JOINT RightHandThumb2
              {
              OFFSET -2.150 0.000 0.000
              CHANNELS 6 Xposition Yposition Zposition Zrotation Xrotation Yrotation
                JOINT RightHandThumb3
                {
                OFFSET -2.200 0.000 0.000
                CHANNELS 6 Xposition Yposition Zposition Zrotation Xrotation Yrotation
                  JOINT RightHandThumb4
                  {
                  OFFSET -1.700 0.000 0.000
                  CHANNELS 6 Xposition Yposition Zposition Zrotation Xrotation Yrotation
                  }
                }
              }
            }
            JOINT RightHandIndex1
            {
            OFFSET -8.730 0.680 2.070
            CHANNELS 6 Xposition Yposition Zposition Zrotation Xrotation Yrotation
              JOINT RightHandIndex2
              {
              OFFSET -2.670 0.000 0.000
              CHANNELS 6 Xposition Yposition Zposition Zrotation Xrotation Yrotation
                JOINT RightHandIndex3
                {
                OFFSET -2.130 0.000 0.000
                CHANNELS 6 Xposition Yposition Zposition Zrotation Xrotation Yrotation
                  JOINT RightHandIndex4
                  {
                  OFFSET -1.800 0.000 0.000
                  CHANNELS 6 Xposition Yposition Zposition Zrotation Xrotation Yrotation
                  }
                }
              }
            }
            JOINT RightHandMiddle1
            {
            OFFSET -9.220 0.670 0.550
            CHANNELS 6 Xposition Yposition Zposition Zrotation Xrotation Yrotation
              JOINT RightHandMiddle2
              {
              OFFSET -2.660 0.000 0.000
              CHANNELS 6 Xposition Yposition Zposition Zrotation Xrotation Yrotation
                JOINT RightHandMiddle3
                {
                OFFSET -2.280 0.000 0.000
                CHANNELS 6 Xposition Yposition Zposition Zrotation Xrotation Yrotation
                  JOINT RightHandMiddle4
                  {
                  OFFSET -1.500 0.000 0.000
                  CHANNELS 6 Xposition Yposition Zposition Zrotation Xrotation Yrotation
                  }
                }
              }
            }
            JOINT RightHandRing1
            {
            OFFSET -9.250 0.670 -1.130
            CHANNELS 6 Xposition Yposition Zposition Zrotation Xrotation Yrotation
              JOINT RightHandRing2
              {
              OFFSET -2.470 0.000 0.000
              CHANNELS 6 Xposition Yposition Zposition Zrotation Xrotation Yrotation
                JOINT RightHandRing3
                {
                OFFSET -2.210 0.000 0.000
                CHANNELS 6 Xposition Yposition Zposition Zrotation Xrotation Yrotation
                  JOINT RightHandRing4
                  {
                  OFFSET -1.800 0.000 0.000
                  CHANNELS 6 Xposition Yposition Zposition Zrotation Xrotation Yrotation
                  }
                }
              }
            }
            JOINT RightHandPinky1
            {
            OFFSET -9.350 0.660 -2.720
            CHANNELS 6 Xposition Yposition Zposition Zrotation Xrotation Yrotation
              JOINT RightHandPinky2
              {
              OFFSET -1.630 0.000 0.000
              CHANNELS 6 Xposition Yposition Zposition Zrotation Xrotation Yrotation
                JOINT RightHandPinky3
                {
                OFFSET -1.710 0.000 0.000
                CHANNELS 6 Xposition Yposition Zposition Zrotation Xrotation Yrotation
                  JOINT RightHandPinky4
                  {
                  OFFSET -1.800 0.000 0.000
                  CHANNELS 6 Xposition Yposition Zposition Zrotation Xrotation Yrotation
                  }
                }
              }
            }
          }
        }
      }
    }
    JOINT Neck
    {
      OFFSET -0.000 49.406 0.000
      CHANNELS 6 Xposition Yposition Zposition Zrotation Xrotation Yrotation
      JOINT Head
      {
        OFFSET -0.000 7.156 -0.000
        CHANNELS 6 Xposition Yposition Zposition Zrotation Xrotation Yrotation
        End Site
        {
          OFFSET -0.000 0.029 -0.000
        }
      }
    }
  }
}
MOTION
Frames:	4
Frame Time:	0.0333333
-16.6883 -13.4098 -309.577 -2.19955 -3.28251 33.5445 6.35432 -7.64259 2.48239 2.75864 -4.37757 -7.40907 -2.38419e-05 -52.8342 -2.38419e-05 -9.3806 9.43207 1.55079 1.19209e-05 -41.4022 7.15256e-05 14.0711 -0.195064 8.17866 -7.10137 -5.86193 0.554991 -12.4605 -9.82657 -8.81825 1.19209e-05 -51.0146 -2.38419e-05 4.65758 12.6107 -1.01901 0 -40.2149 2.38419e-05 8.00688 -10.2253 5.93134 -2.38419e-05 6.0244 -6.02434 -2.30849 -4.67855 0.508847 0 49.4052 -9.53674e-05 -48.771 1.8783e-05 -3.36423 29.6753 3.57628e-05 0 -27.1003 47.0889 -3.38205 22.5812 0 0 3.27119e-06 -1.70755e-06 -49.8221 26.8441 1.78814e-05 -1.19209e-05 -1.49732 -0.024277 9.44369 0.0062 0.0497 0.0339 -9.14997 0 0 0 0.0215 0 0 -9.14997 0 0 0.022 0 0 -9.14997 0 0 0.017 0 0 0 0 -0.0068 0.0873 0.0207 -9.14997 0 0 0 0.0267 0 -16.2666 0 0 0 0.0213 0 -18.2999 0 0 0 0.018 0 0 0 0 -0.0067 0.0922 0.0055 -9.14997 0 0 0 0.0266 0 -16.2666 0 0 0 0.0228 0 -18.2999 0 0 0 0.015 0 0 0 0 -0.0067 0.0925 -0.0113 -9.14997 0 0 0 0.0247 0 -16.2666 0 0 0 0.0221 0 -18.2999 0 0 0 0.018 0 0 0 0 -0.0066 0.0935 -0.0272 -9.14997 0 0 0 0.0163 0 -16.2666 0 0 0 0.0171 0 -18.2999 0 0 0 0.018 0 0 0 0 0 49.4052 -9.53674e-05 59.6234 -8.53774e-06 3.56492 -28.0066 0 4.76837e-05 9.57953 25.9016 1.06983 -23.3979 4.76837e-05 -2.38419e-05 -8.40441e-06 5.12264e-06 38.3347 -29.2025 9.53674e-05 0 11.4144 -0.019436 -3.38293 -0.0062 0.0497 0.0339 0 0 0 0 0.0215 0 0 0 0 0 0.022 0 0 0 0 0 0.017 0 0 0 0 0.0068 0.0873 0.0207 0 0 0 0 0.0267 0 0 0 0 0 0.0213 0 0 0 0 0 0.018 0 0 0 0 0.0067 0.0922 0.0055 0 0 0 0 0.0266 0 0 0 0 0 0.0228 0 0 0 0 0 0.015 0 0 0 0 0.0067 0.0925 -0.0113 0 0 0 0 0.0247 0 0 0 0 0 0.0221 0 0 0 0 0 0.018 0 0 0 0 0.0066 0.0935 -0.0272 0 0 0 0 0.0163 0 0 0 0 0 0.0171 0 0 0 0 0 0.018 0 0 0 0 0 49.4052 -9.53674e-05 -16.2423 30.1428 8.32287 4.76837e-05 7.65691 2.38419e-05 7.68396e-06 -1.4941e-05 -3.41509e-06 
-16.6883 -13.4098 -309.577 -2.19955 -3.28251 33.5445 6.35432 -7.64259 2.48239 2.75864 -4.37757 -7.40907 -2.38419e-05 -52.8342 -2.38419e-05 -9.3806 9.43207 1.55079 1.19209e-05 -41.4022 7.15256e-05 14.0711 -0.195064 8.17866 -7.10137 -5.86193 0.554991 -12.4605 -9.82657 -8.81825 1.19209e-05 -51.0146 -2.38419e-05 4.65758 12.6107 -1.01901 0 -40.2149 2.38419e-05 8.00688 -10.2253 5.93134 -2.38419e-05 6.0244 -6.02434 -2.30849 -4.67855 0.508847 0 49.4052 -9.53674e-05 -48.771 1.8783e-05 -3.36423 29.6753 3.57628e-05 0 -27.1003 47.0889 -3.38205 22.5812 0 0 3.27119e-06 -1.70755e-06 -49.8221 26.8441 1.78814e-05 -1.19209e-05 -1.49732 -0.024277 9.44369 0.0062 0.0497 0.0339 -9.14997 0 0 0 0.0215 0 0 -9.14997 0 0 0.022 0 0 -9.14997 0 0 0.017 0 0 0 0 -0.0068 0.0873 0.0207 -9.14997 0 0 0 0.0267 0 -16.2666 0 0 0 0.0213 0 -18.2999 0 0 0 0.018 0 0 0 0 -0.0067 0.0922 0.0055 -9.14997 0 0 0 0.0266 0 -16.2666 0 0 0 0.0228 0 -18.2999 0 0 0 0.015 0 0 0 0 -0.0067 0.0925 -0.0113 -9.14997 0 0 0 0.0247 0 -16.2666 0 0 0 0.0221 0 -18.2999 0 0 0 0.018 0 0 0 0 -0.0066 0.0935 -0.0272 -9.14997 0 0 0 0.0163 0 -16.2666 0 0 0 0.0171 0 -18.2999 0 0 0 0.018 0 0 0 0 0 49.4052 -9.53674e-05 59.6234 -8.53774e-06 3.56492 -28.0066 0 4.76837e-05 9.57953 25.9016 1.06983 -23.3979 4.76837e-05 -2.38419e-05 -8.40441e-06 5.12264e-06 38.3347 -29.2025 9.53674e-05 0 11.4144 -0.019436 -3.38293 -0.0062 0.0497 0.0339 0 0 0 0 0.0215 0 0 0 0 0 0.022 0 0 0 0 0 0.017 0 0 0 0 0.0068 0.0873 0.0207 0 0 0 0 0.0267 0 0 0 0 0 0.0213 0 0 0 0 0 0.018 0 0 0 0 0.0067 0.0922 0.0055 0 0 0 0 0.0266 0 0 0 0 0 0.0228 0 0 0 0 0 0.015 0 0 0 0 0.0067 0.0925 -0.0113 0 0 0 0 0.0247 0 0 0 0 0 0.0221 0 0 0 0 0 0.018 0 0 0 0 0.0066 0.0935 -0.0272 0 0 0 0 0.0163 0 0 0 0 0 0.0171 0 0 0 0 0 0.018 0 0 0 0 0 49.4052 -9.53674e-05 -16.2423 30.1428 8.32287 4.76837e-05 7.65691 2.38419e-05 7.68396e-06 -1.4941e-05 -3.41509e-06 
-16.8222 -13.2735 -309.514 -2.25856 -3.08926 32.7567 6.47655 -7.69409 2.4677 2.69709 -4.3599 -6.93992 1.19209e-05 -52.8761 0 -9.17668 9.11962 1.46672 -1.19209e-05 -41.4159 2.38419e-05 14.1503 0.144598 8.16767 -7.18843 -5.93342 0.628424 -12.1615 -10.0912 -8.34407 -2.38419e-05 -50.9473 9.53674e-05 4.60186 12.3831 -0.988885 2.38419e-05 -40.3275 -7.15256e-05 8.50814 -13.5645 6.61738 1.19209e-05 6.031 -6.03106 -2.1367 -4.6825 0.392127 -2.38419e-05 49.4052 -2.38419e-05 -49.2098 3.41509e-06 -3.20334 29.7748 -1.19209e-05 4.76837e-05 -27.3132 47.586 -2.67341 22.5172 0 0 1.10475e-05 -1.70755e-06 -48.9906 27.3309 -1.78814e-05 -2.38419e-05 -1.32973 -0.0208845 9.56254 0.0062 0.0497 0.0339 -5.47616 0 0 0 0.0215 0 0 -5.47616 0 0 0.022 0 0 -5.47616 0 0 0.017 0 0 0 0 -0.0068 0.0873 0.0207 -5.47616 0 0 0 0.0267 0 -9.73539 0 0 0 0.0213 0 -10.9523 0 0 0 0.018 0 0 0 0 -0.0067 0.0922 0.0055 -5.47616 0 0 0 0.0266 0 -9.73539 0 0 0 0.0228 0 -10.9523 0 0 0 0.015 0 0 0 0 -0.0067 0.0925 -0.0113 -5.47616 0 0 0 0.0247 0 -9.73539 0 0 0 0.0221 0 -10.9523 0 0 0 0.018 0 0 0 0 -0.0066 0.0935 -0.0272 -5.47616 0 0 0 0.0163 0 -9.73539 0 0 0 0.0171 0 -10.9523 0 0 0 0.018 0 0 0 0 -2.38419e-05 49.4052 -2.38419e-05 59.4585 -1.70755e-06 3.39543 -28.0921 -5.96046e-06 4.76837e-05 9.85348 27.7081 0.863055 -23.4428 4.76837e-05 -2.38419e-05 8.26371e-07 1.70755e-06 38.3505 -29.171 -2.38419e-05 0 11.6172 -0.0208716 -3.63474 -0.0062 0.0497 0.0339 0 0 0 0 0.0215 0 0 0 0 0 0.022 0 0 0 0 0 0.017 0 0 0 0 0.0068 0.0873 0.0207 0 0 0 0 0.0267 0 0 0 0 0 0.0213 0 0 0 0 0 0.018 0 0 0 0 0.0067 0.0922 0.0055 0 0 0 0 0.0266 0 0 0 0 0 0.0228 0 0 0 0 0 0.015 0 0 0 0 0.0067 0.0925 -0.0113 0 0 0 0 0.0247 0 0 0 0 0 0.0221 0 0 0 0 0 0.018 0 0 0 0 0.0066 0.0935 -0.0272 0 0 0 0 0.0163 0 0 0 0 0 0.0171 0 0 0 0 0 0.018 0 0 0 0 -2.38419e-05 49.4052 -2.38419e-05 -17.0038 30.5117 8.82532 1.19209e-05 7.60585 4.76837e-05 6.4033e-06 -8.53774e-06 1.70755e-06 
-17.1823 -12.9718 -309.243 -2.53028 -2.70981 31.7904 6.68981 -7.79622 2.48029 2.85436 -4.34616 -6.44268 0 -53.027 0 -8.90401 8.33488 1.30099 0 -41.3528 -4.76837e-05 14.1963 0.730121 8.09393 -7.31877 -6.0547 0.720429 -11.9232 -10.7367 -7.8958 0 -50.089 2.38419e-05 5.31756 12.3282 -1.13848 1.78814e-05 -41.4434 2.38419e-05 9.29447 -20.7502 7.92465 -2.38419e-05 6.04721 -6.04718 -1.73583 -4.69594 0.0480718 0 49.4052 -7.15256e-05 -49.7572 1.53679e-05 -2.88771 30.145 0 0 -27.893 48.0127 -4.20281 22.4736 2.38419e-05 2.38419e-05 -6.13716e-06 -5.12264e-06 -44.0176 27.9575 -5.96046e-06 1.19209e-05 -0.904093 -0.00668445 9.98039 0.0062 0.0497 0.0339 -0.631121 0 0 0 0.0215 0 0 -0.631121 0 0 0.022 0 0 -0.631121 0 0 0.017 0 0 0 0 -0.0068 0.0873 0.0207 -0.631121 0 0 0 0.0267 0 -1.12199 0 0 0 0.0213 0 -1.26224 0 0 0 0.018 0 0 0 0 -0.0067 0.0922 0.0055 -0.631121 0 0 0 0.0266 0 -1.12199 0 0 0 0.0228 0 -1.26224 0 0 0 0.015 0 0 0 0 -0.0067 0.0925 -0.0113 -0.631121 0 0 0 0.0247 0 -1.12199 0 0 0 0.0221 0 -1.26224 0 0 0 0.018 0 0 0 0 -0.0066 0.0935 -0.0272 -0.631121 0 0 0 0.0163 0 -1.12199 0 0 0 0.0171 0 -1.26224 0 0 0 0.018 0 0 0 0 0 49.4052 -7.15256e-05 59.2102 -3.41509e-06 3.09406 -28.1362 1.19209e-05 4.76837e-05 9.05399 31.3376 1.26738 -23.675 2.38419e-05 -5.96046e-05 -8.35729e-07 -1.70755e-06 37.8428 -28.3244 7.15256e-05 4.17233e-05 12.1458 -0.0175206 -3.6195 -0.0062 0.0497 0.0339 0 0 0 0 0.0215 0 0 0 0 0 0.022 0 0 0 0 0 0.017 0 0 0 0 0.0068 0.0873 0.0207 0 0 0 0 0.0267 0 0 0 0 0 0.0213 0 0 0 0 0 0.018 0 0 0 0 0.0067 0.0922 0.0055 0 0 0 0 0.0266 0 0 0 0 0 0.0228 0 0 0 0 0 0.015 0 0 0 0 0.0067 0.0925 -0.0113 0 0 0 0 0.0247 0 0 0 0 0 0.0221 0 0 0 0 0 0.018 0 0 0 0 0.0066 0.0935 -0.0272 0 0 0 0 0.0163 0 0 0 0 0 0.0171 0 0 0 0 0 0.018 0 0 0 0 0 49.4052 -7.15256e-05 -19.6261 29.8659 10.0694 -2.38419e-05 7.46432 -7.15256e-05 1.10991e-05 -8.96462e-06 1.70755e-06 
